<svg width="28" height="27" viewBox="0 0 28 27" fill="none" xmlns="http://www.w3.org/2000/svg">
<path d="M14 18.3214C13.6085 18.3215 13.2255 18.2109 12.8986 18.0031C12.5717 17.7954 12.3153 17.4997 12.161 17.1527C11.8383 17.0792 11.5207 16.9864 11.21 16.8749L11.193 16.8692C10.2806 16.5389 9.43842 16.0507 8.708 15.4285C7.72939 14.5961 6.97682 13.5454 6.51591 12.3681C6.055 11.1909 5.89974 9.92277 6.06368 8.67438C6.22761 7.42599 6.70576 6.23522 7.45644 5.2059C8.20711 4.17658 9.20751 3.33997 10.3704 2.769C11.5333 2.19804 12.8234 1.91006 14.1282 1.93019C15.433 1.95031 16.7129 2.27791 17.8563 2.88444C18.9997 3.49097 19.9718 4.358 20.688 5.40994C21.4041 6.46188 21.8425 7.66678 21.965 8.91959C22.004 9.31784 21.665 9.64281 21.25 9.64281C20.836 9.64281 20.505 9.31784 20.457 8.92056C20.3248 7.82444 19.8948 6.78141 19.2106 5.8969C18.5263 5.01239 17.6121 4.31775 16.5602 3.88321C15.5082 3.44866 14.356 3.28961 13.2199 3.42213C12.0838 3.55465 11.0042 3.97405 10.09 4.63792C9.17594 5.3018 8.45979 6.18663 8.01399 7.20295C7.5682 8.21928 7.40856 9.33109 7.55122 10.426C7.69388 11.5209 8.13377 12.56 8.82644 13.4384C9.51911 14.3168 10.44 15.0033 11.496 15.4285L11.536 15.4449C11.736 15.524 11.9413 15.5937 12.152 15.6542C12.3446 15.2016 12.7085 14.8365 13.1698 14.6328C13.6311 14.4292 14.1555 14.4022 14.6366 14.5574C15.1178 14.7126 15.5198 15.0384 15.7613 15.4687C16.0027 15.899 16.0655 16.4017 15.937 16.8749C15.8261 17.289 15.5757 17.6558 15.2251 17.9176C14.8744 18.1795 14.4435 18.3215 14 18.3214ZM7 16.8749H8.169C7.60991 16.4547 7.10081 15.9761 6.651 15.4478C5.92071 15.5303 5.24727 15.8685 4.75856 16.3983C4.26985 16.928 3.99991 17.6124 4 18.3214V19.0108C4 22.5961 8.21 25.0714 14 25.0714C19.79 25.0714 24 22.4601 24 19.0108V18.3214C24 17.5541 23.6839 16.8183 23.1213 16.2758C22.5587 15.7333 21.7956 15.4285 21 15.4285H17.355C17.4999 15.8973 17.5375 16.3908 17.465 16.8749H21L21.145 16.8817C21.516 16.9164 21.8603 17.0831 22.1108 17.3493C22.3612 17.6154 22.5 17.962 22.5 18.3214V19.0108L22.495 19.1661C22.355 21.5961 18.926 23.6249 14 23.6249C8.889 23.6249 5.5 21.5893 5.5 19.0108V18.3214L5.507 18.1816C5.54303 17.8238 5.71589 17.4918 5.99189 17.2503C6.2679 17.0087 6.62727 16.8749 7 16.8749ZM19 9.64281C19.0002 10.5162 18.7543 11.3733 18.2886 12.1225C17.8229 12.8716 17.1549 13.4847 16.356 13.8963C15.7114 13.3309 14.8714 13.0176 14 13.0178C14.4596 13.0178 14.9148 12.9305 15.3394 12.7609C15.764 12.5913 16.1499 12.3427 16.4749 12.0293C16.7999 11.7159 17.0577 11.3438 17.2336 10.9344C17.4095 10.5249 17.5 10.086 17.5 9.64281C17.5 9.19959 17.4095 8.76072 17.2336 8.35125C17.0577 7.94178 16.7999 7.56972 16.4749 7.25632C16.1499 6.94292 15.764 6.69432 15.3394 6.52471C14.9148 6.3551 14.4596 6.26781 14 6.26781C13.0717 6.26781 12.1815 6.62339 11.5251 7.25632C10.8687 7.88926 10.5 8.7477 10.5 9.64281C10.5 10.5379 10.8687 11.3964 11.5251 12.0293C12.1815 12.6622 13.0717 13.0178 14 13.0178C13.092 13.0178 12.266 13.3514 11.645 13.8972C10.8465 13.486 10.1787 12.8734 9.713 12.1249C9.31646 11.4878 9.07797 10.7711 9.01613 10.0305C8.95429 9.28991 9.07078 8.54556 9.35651 7.85556C9.64224 7.16556 10.0895 6.54857 10.6633 6.05275C11.2371 5.55693 11.922 5.1957 12.6645 4.99726C13.407 4.79881 14.1871 4.76852 14.9437 4.90876C15.7004 5.04899 16.4132 5.35594 17.0265 5.80566C17.6398 6.25538 18.137 6.8357 18.4794 7.50131C18.8217 8.16693 18.9999 8.89983 19 9.64281Z" fill="white"/>
</svg>
