<svg width="24" height="24" viewBox="0 0 24 24" fill="none" xmlns="http://www.w3.org/2000/svg">
<g clip-path="url(#clip0_745_1523)">
<path d="M23.9996 14.0853C23.9996 14.0813 24 14.0774 24 14.0734C24 14.0713 23.9997 14.0692 23.9997 14.0671C23.9995 14.059 23.9991 14.0509 23.9984 14.0429C23.998 14.0375 23.9976 14.0322 23.9969 14.0268C23.9961 14.0201 23.995 14.0134 23.9938 14.0066C23.9927 13.9999 23.9914 13.9932 23.9899 13.9867C23.9887 13.9814 23.9873 13.9762 23.9858 13.971C23.9837 13.9632 23.9814 13.9555 23.9789 13.9479C23.9782 13.9458 23.9777 13.9438 23.977 13.9417L20.4012 4.00893C21.0462 3.79055 21.5119 3.17997 21.5119 2.4622C21.5119 2.2475 21.3379 2.07343 21.1231 2.07343C20.9084 2.07343 20.7343 2.2475 20.7343 2.4622C20.7343 2.93381 20.3507 3.31749 19.879 3.31749C18.6076 3.31749 17.7188 2.95096 16.7779 2.56292C15.7684 2.14663 14.7267 1.71706 13.156 1.66424C13.0357 1.30227 12.75 1.01541 12.3888 0.893391V0.388769C12.3888 0.174065 12.2148 0 12 0C11.7852 0 11.6112 0.174065 11.6112 0.388769V0.893339C11.25 1.01536 10.9643 1.30222 10.844 1.66419C9.27333 1.71701 8.23164 2.14657 7.22213 2.56287C6.28116 2.95096 5.39238 3.31749 4.12095 3.31749C3.64935 3.31749 3.26566 2.93381 3.26566 2.4622C3.26566 2.2475 3.09165 2.07343 2.87689 2.07343C2.66213 2.07343 2.48812 2.2475 2.48812 2.4622C2.48812 3.17997 2.95381 3.79055 3.59881 4.00893L0.0229633 13.9417C0.0222376 13.9437 0.0217711 13.9458 0.0210972 13.9479C0.0185054 13.9555 0.0162246 13.9632 0.0140994 13.971C0.0126479 13.9762 0.0112484 13.9814 0.0100562 13.9867C0.00855292 13.9932 0.00730886 13.9999 0.00611663 14.0066C0.00492441 14.0133 0.00383585 14.02 0.00300648 14.0268C0.00238445 14.0321 0.00191793 14.0375 0.00150324 14.0429C0.000881209 14.0509 0.000414687 14.0591 0.000259179 14.0671C0.000259179 14.0692 0 14.0713 0 14.0734C0 14.0774 0.000414687 14.0813 0.000414687 14.0853C0.000570194 14.0897 0.000570194 14.0941 0.00088121 14.0985C0.0102117 14.8876 0.458281 15.6176 1.26625 16.1563C2.0343 16.6683 3.04816 16.9503 4.12095 16.9503C5.19375 16.9503 6.2076 16.6683 6.97565 16.1563C7.78357 15.6176 8.23164 14.8877 8.24102 14.0985C8.24133 14.0941 8.24133 14.0897 8.24149 14.0853C8.24149 14.0813 8.2419 14.0774 8.2419 14.0734C8.2419 14.0713 8.24164 14.0692 8.24159 14.0671C8.24143 14.059 8.24102 14.0509 8.24035 14.0429C8.23993 14.0375 8.23946 14.0322 8.23884 14.0268C8.23801 14.0201 8.23692 14.0134 8.23573 14.0066C8.23459 13.9999 8.2333 13.9932 8.23179 13.9867C8.2306 13.9814 8.2292 13.9762 8.22775 13.971C8.22562 13.9632 8.22334 13.9555 8.22075 13.9479C8.22008 13.9458 8.21961 13.9438 8.21889 13.9417L4.66642 4.07373C5.81137 3.98509 6.6776 3.62851 7.51853 3.28173C8.45702 2.89467 9.42557 2.49553 10.8479 2.44245C10.9704 2.79893 11.2539 3.08097 11.6112 3.20169V14.5781C11.1296 14.7407 10.7818 15.1965 10.7818 15.7322C10.7818 16.0524 10.9062 16.3439 11.1089 16.5616C10.9062 16.7793 10.7818 17.0708 10.7818 17.391V21.5637H9.09714C8.42545 21.5637 7.879 22.1102 7.879 22.7819V23.6112C7.879 23.8259 8.05301 24 8.26777 24H15.7321C15.9469 24 16.1209 23.8259 16.1209 23.6112V22.7819C16.1209 22.1102 15.5744 21.5637 14.9028 21.5637H13.2181V17.3909C13.2181 17.0707 13.0938 16.7792 12.8911 16.5616C13.0938 16.3439 13.2181 16.0524 13.2181 15.7322C13.2181 15.1964 12.8703 14.7407 12.3888 14.578V3.20169C12.7461 3.08097 13.0295 2.79893 13.1521 2.44245C14.5744 2.49559 15.5429 2.89472 16.4814 3.28173C17.3224 3.62851 18.1886 3.98509 19.3335 4.07373L15.7811 13.9417C15.7803 13.9437 15.7799 13.9458 15.7792 13.9479C15.7766 13.9555 15.7743 13.9632 15.7722 13.971C15.7707 13.9762 15.7693 13.9814 15.7682 13.9867C15.7667 13.9932 15.7654 13.9999 15.7642 14.0066C15.763 14.0133 15.7619 14.02 15.7611 14.0268C15.7605 14.0321 15.76 14.0375 15.7596 14.0429C15.759 14.0509 15.7585 14.0591 15.7584 14.0671C15.7583 14.0692 15.758 14.0713 15.758 14.0734C15.758 14.0774 15.7585 14.0813 15.7585 14.0853C15.7586 14.0897 15.7586 14.0941 15.7589 14.0985C15.7683 14.8876 16.2163 15.6176 17.0243 16.1563C17.7924 16.6683 18.8063 16.9503 19.879 16.9503C20.9518 16.9503 21.9657 16.6683 22.7338 16.1563C23.5417 15.6176 23.9897 14.8877 23.9991 14.0985C23.9994 14.0941 23.9994 14.0897 23.9996 14.0853ZM4.12095 4.85401L7.29999 13.6847H0.941909L4.12095 4.85401ZM4.12095 16.1728C2.51943 16.1728 1.13759 15.4221 0.837719 14.4622H7.40418C7.10431 15.4221 5.72247 16.1728 4.12095 16.1728ZM15.3434 22.7819V23.2225H8.65659V22.7819C8.65659 22.5389 8.85424 22.3413 9.09719 22.3413H14.9028C15.1458 22.3413 15.3434 22.5389 15.3434 22.7819ZM11.5594 21.5637V17.3909C11.5594 17.148 11.757 16.9503 12 16.9503C12.243 16.9503 12.4406 17.148 12.4406 17.3909V21.5637H11.5594ZM12 16.1728C11.757 16.1728 11.5594 15.9751 11.5594 15.7322C11.5594 15.4892 11.757 15.2916 12 15.2916C12.243 15.2916 12.4406 15.4892 12.4406 15.7322C12.4406 15.9751 12.243 16.1728 12 16.1728ZM12.0007 2.48807C12.0005 2.48807 12.0002 2.48802 12 2.48802C11.9998 2.48802 11.9995 2.48807 11.9993 2.48807C11.7567 2.48765 11.5594 2.29021 11.5594 2.04752C11.5594 1.80498 11.7564 1.60769 11.9988 1.60696C11.9992 1.60696 11.9996 1.60702 12 1.60702C12.0004 1.60702 12.0008 1.60696 12.0012 1.60696C12.2436 1.60764 12.4406 1.80498 12.4406 2.04752C12.4406 2.29021 12.2433 2.48765 12.0007 2.48807ZM23.0581 13.6847H16.7L19.879 4.85401L23.0581 13.6847ZM19.879 16.1728C18.2775 16.1728 16.8957 15.4221 16.5958 14.4622H23.1623C22.8624 15.4221 21.4806 16.1728 19.879 16.1728Z" fill="white"/>
</g>
<defs>
<clipPath id="clip0_745_1523">
<rect width="24" height="24" fill="white"/>
</clipPath>
</defs>
</svg>
