<svg width="36" height="36" viewBox="0 0 36 36" fill="none" xmlns="http://www.w3.org/2000/svg">
<path d="M9.98085 7.79972L17.9997 3.30005L26.02 7.79972L23.08 9.46523L17.9997 6.62372L12.9282 9.46523L9.98085 7.79972ZM26.0185 13.4842L23.0785 11.8172L17.9997 14.6602L12.9282 11.8172L9.98085 13.4842V16.8064L15.0435 19.6494V25.3251L17.9997 26.992L20.9485 25.3251V19.6509L26.02 16.8079L26.0185 13.4842ZM26.0185 22.4924V19.1599L23.0785 20.8254V24.1491L26.0185 22.4924ZM28.1192 23.6684L23.0477 26.5011V29.8335L31.0665 25.3251V16.3257L28.1192 17.9839V23.6684ZM25.1704 10.6412L28.1104 12.3082V15.6304L31.0665 13.9737V10.6412L28.1192 8.97572L25.1704 10.65V10.6412ZM15.0435 27.7109V31.0331L17.9997 32.7L20.9485 31.0345V27.7167L17.9997 29.3778L15.0523 27.7109H15.0435ZM9.98085 22.4835L12.9208 24.1491V20.8269L9.98085 19.1599V22.4924V22.4835ZM15.0435 10.6412L17.9997 12.3082L20.9485 10.6412L17.9997 8.97572L15.0523 10.65L15.0435 10.6412ZM7.88169 12.3082L10.829 10.6412L7.88904 8.97572L4.93434 10.65V13.9825L7.88169 15.6407V12.3082ZM7.88169 17.9839L4.9314 16.3257V25.3251L12.9517 29.8335V26.4937L7.88904 23.6595V17.9751L7.88169 17.9839Z" fill="#F0B90B"/>
</svg>
