<svg width="28" height="28" viewBox="0 0 28 28" fill="none" xmlns="http://www.w3.org/2000/svg">
<g clip-path="url(#clip0_456_4417)">
<path d="M26.825 17.1969C25.0586 24.283 17.8792 28.5906 10.8033 26.8241C3.71696 25.0577 -0.5906 17.8787 1.17586 10.8028C2.94223 3.71671 10.1112 -0.590843 17.1975 1.17562C24.2734 2.93165 28.5914 10.1107 26.825 17.1969Z" fill="url(#paint0_linear_456_4417)"/>
<path d="M20.2946 12.3526C20.5528 10.5967 19.2205 9.64653 17.382 9.0165L17.9811 6.63064L16.5351 6.26914L15.9567 8.59303C15.5746 8.50008 15.1821 8.40712 14.7896 8.32449L15.368 5.99028L13.922 5.62878L13.3333 8.00431C13.0131 7.93201 12.7033 7.85972 12.4037 7.78742V7.77709L10.4 7.28133L10.0179 8.83058C10.0179 8.83058 11.092 9.07847 11.0714 9.08879C11.6601 9.23339 11.7634 9.62587 11.7427 9.93572L11.0611 12.6521C11.1024 12.6624 11.154 12.6727 11.216 12.7037C11.1643 12.6934 11.1127 12.6831 11.0611 12.6624L10.1108 16.4633C10.0385 16.6388 9.85263 16.9074 9.44982 16.8041C9.46015 16.8248 8.39633 16.5459 8.39633 16.5459L7.67334 18.2088L9.56343 18.6839C9.9146 18.7768 10.2554 18.8595 10.5963 18.9524L9.99723 21.3589L11.4432 21.7204L12.0422 19.3346C12.4347 19.4378 12.8272 19.5411 13.199 19.6341L12.6103 22.0096L14.0563 22.3711L14.6553 19.9646C17.1341 20.4294 18.9933 20.2435 19.7679 18.0022C20.3979 16.2051 19.7369 15.1619 18.4355 14.4802C19.3961 14.2633 20.1087 13.6333 20.2946 12.3526ZM16.9792 17.0003C16.5351 18.7975 13.4986 17.8266 12.5174 17.5787L13.3126 14.3873C14.2938 14.6351 17.4543 15.1206 16.9792 17.0003ZM17.4337 12.3216C17.0205 13.9638 14.5004 13.1272 13.6845 12.9206L14.4075 10.0287C15.2234 10.2352 17.8571 10.6174 17.4337 12.3216Z" fill="white"/>
</g>
<defs>
<linearGradient id="paint0_linear_456_4417" x1="1322.1" y1="0.144965" x2="1322.1" y2="2644.58" gradientUnits="userSpaceOnUse">
<stop stop-color="#F9AA4B"/>
<stop offset="1" stop-color="#F7931A"/>
</linearGradient>
<clipPath id="clip0_456_4417">
<rect width="26.4407" height="26.4407" fill="white" transform="translate(0.779785 0.779541)"/>
</clipPath>
</defs>
</svg>
