<svg width="22" height="22" viewBox="0 0 22 22" fill="none" xmlns="http://www.w3.org/2000/svg">
<path d="M0.75 11C0.75 13.2475 0.871405 15.0024 1.17704 16.3776C1.48077 17.7443 1.9564 18.6896 2.63339 19.3666C3.31039 20.0436 4.25571 20.5192 5.62241 20.823C6.99762 21.1286 8.75249 21.25 11 21.25C13.2475 21.25 15.0024 21.1286 16.3776 20.823C17.7443 20.5192 18.6896 20.0436 19.3666 19.3666C20.0436 18.6896 20.5192 17.7443 20.823 16.3776C21.1286 15.0024 21.25 13.2475 21.25 11C21.25 8.75249 21.1286 6.99762 20.823 5.62241C20.5192 4.25571 20.0436 3.31039 19.3666 2.63339C18.6896 1.9564 17.7443 1.48077 16.3776 1.17704C15.0024 0.871405 13.2475 0.75 11 0.75C8.75249 0.75 6.99762 0.871405 5.62241 1.17704C4.25571 1.48077 3.31039 1.9564 2.63339 2.63339C1.9564 3.31039 1.48077 4.25571 1.17704 5.62241C0.871405 6.99762 0.75 8.75249 0.75 11Z" stroke="#CF0A0A" stroke-width="1.5" stroke-linecap="round" stroke-linejoin="round"/>
<path fill-rule="evenodd" clip-rule="evenodd" d="M12 7.33337C12 6.78109 11.5523 6.33337 11 6.33337C10.4477 6.33337 10 6.78109 10 7.33337V12.8334C10 13.3857 10.4477 13.8334 11 13.8334C11.5523 13.8334 12 13.3857 12 12.8334V7.33337ZM11 14.6667C10.4937 14.6667 10.0833 15.0771 10.0833 15.5834C10.0833 16.0896 10.4937 16.5 11 16.5C11.5063 16.5 11.9167 16.0896 11.9167 15.5834C11.9167 15.0771 11.5063 14.6667 11 14.6667Z" fill="#CF0A0A"/>
</svg>
