<svg width="26" height="26" viewBox="0 0 26 26" fill="none" xmlns="http://www.w3.org/2000/svg">
<circle cx="12.6316" cy="12.6316" r="12.6316" fill="#FF0F27"/>
<path d="M11.5837 7.20764C9.38355 7.36138 7.86853 7.9209 7.05962 8.42578C6.78077 8.59983 6.69984 8.96069 6.87885 9.2318C7.05787 9.50291 7.42904 9.5816 7.70789 9.40755C8.42092 8.96252 10.1016 8.33333 12.7837 8.33333C15.4569 8.33333 17.0921 8.95881 17.8742 9.41646C18.1581 9.58259 18.5268 9.4935 18.6977 9.21747C18.8686 8.94144 18.7769 8.583 18.493 8.41687C17.6486 7.92277 16.1759 7.36217 13.9837 7.20784V6.58333C13.9837 6.26117 13.715 6 13.3837 6H12.1837C11.8523 6 11.5837 6.26117 11.5837 6.58333V7.20764Z" fill="white"/>
<path fill-rule="evenodd" clip-rule="evenodd" d="M7.12289 15.2019C7.08964 15.0555 7.05545 14.9049 7.02003 14.75C6.05943 10.55 8.03731 9.5 12.7837 9.5C17.53 9.5 19.5079 10.55 18.5473 14.75C18.5126 14.9018 18.4791 15.0496 18.4464 15.1933L18.4455 15.1974L18.4445 15.2016C17.5762 19.0257 17.355 20 12.7837 20C8.21233 20 7.99118 19.026 7.12289 15.2019ZM10.3837 12.4167C10.7151 12.4167 10.9837 12.6778 10.9837 13V16.5C10.9837 16.8222 10.7151 17.0833 10.3837 17.0833C10.0523 17.0833 9.78372 16.8222 9.78372 16.5V13C9.78372 12.6778 10.0523 12.4167 10.3837 12.4167ZM13.3837 13C13.3837 12.6778 13.115 12.4167 12.7837 12.4167C12.4523 12.4167 12.1837 12.6778 12.1837 13V16.5C12.1837 16.8222 12.4523 17.0833 12.7837 17.0833C13.115 17.0833 13.3837 16.8222 13.3837 16.5V13ZM15.1836 12.4167C15.515 12.4167 15.7836 12.6778 15.7836 13V16.5C15.7836 16.8222 15.515 17.0833 15.1836 17.0833C14.8523 17.0833 14.5837 16.8222 14.5837 16.5V13C14.5837 12.6778 14.8523 12.4167 15.1836 12.4167Z" fill="white"/>
</svg>
