<svg width="26" height="26" viewBox="0 0 26 26" fill="none" xmlns="http://www.w3.org/2000/svg">
<circle cx="12.6316" cy="12.6316" r="12.6316" fill="#258363"/>
<path fill-rule="evenodd" clip-rule="evenodd" d="M12.6313 17.8421C12.6313 17.5224 12.8905 17.2632 13.2103 17.2632H17.8419C18.1616 17.2632 18.4208 17.5224 18.4208 17.8421C18.4208 18.1619 18.1616 18.4211 17.8419 18.4211H13.2103C12.8905 18.4211 12.6313 18.1619 12.6313 17.8421Z" fill="white"/>
<path fill-rule="evenodd" clip-rule="evenodd" d="M17.7107 10.3736C18.6427 9.43793 18.6031 8.20923 17.9072 7.45678C17.5678 7.08989 17.0849 6.85553 16.5378 6.84261C15.9888 6.82964 15.4199 7.03962 14.895 7.47879C14.8815 7.49003 14.8686 7.50186 14.8563 7.51426L7.34806 15.0524C7.02384 15.3779 6.8418 15.8187 6.8418 16.2781V17.2586C6.8418 17.8963 7.3582 18.421 8.00191 18.421H8.97386C9.4357 18.421 9.87851 18.2371 10.2044 17.9098L17.7107 10.3736ZM15.6459 9.03796C15.4198 8.81187 15.0532 8.81187 14.8272 9.03796C14.6011 9.26405 14.6011 9.63062 14.8272 9.85672L15.4061 10.4357C15.6322 10.6618 15.9988 10.6618 16.2249 10.4357C16.4509 10.2096 16.4509 9.843 16.2249 9.6169L15.6459 9.03796Z" fill="white"/>
</svg>
