<svg width="21" height="18" viewBox="0 0 21 18" fill="none" xmlns="http://www.w3.org/2000/svg">
<path d="M0.75 9C0.75 12.7186 1.2366 14.6308 2.49556 15.7099C3.13264 16.2559 4.03498 16.6484 5.35187 16.8992C6.67159 17.1506 8.35276 17.25 10.5 17.25C12.6472 17.25 14.3284 17.1506 15.6481 16.8992C16.965 16.6484 17.8674 16.2559 18.5044 15.7099C19.7634 14.6308 20.25 12.7186 20.25 9C20.25 5.28141 19.7634 3.36924 18.5044 2.29013C17.8674 1.74406 16.965 1.35162 15.6481 1.10076C14.3284 0.849363 12.6472 0.75 10.5 0.75C7.66267 0.75 5.65336 0.924507 4.22208 1.38165C2.83919 1.82334 2.03036 2.51603 1.52535 3.59151C0.970763 4.77255 0.75 6.48056 0.75 9Z" stroke="white" stroke-width="1.5" stroke-linecap="round" stroke-linejoin="round"/>
</svg>
