<svg width="36" height="25" viewBox="0 0 36 25" fill="none" xmlns="http://www.w3.org/2000/svg">
<path d="M1.48533 9.73553C1.41892 9.46749 1.1478 9.30404 0.879761 9.37044C0.611722 9.43685 0.448267 9.70797 0.514673 9.97601L1.48533 9.73553ZM24.9557 11.5623L25.436 11.4232L24.9557 11.5623ZM22.0841 3.63076L21.6044 3.48972L22.0841 3.63076ZM22.6601 3.63197L22.1798 3.77099L22.6601 3.63197ZM18.3242 14.4844L18.7979 14.3244L18.3242 14.4844ZM18.8962 14.473L19.3759 14.6141L18.8962 14.473ZM15.303 7.27225L15.7897 7.38665L15.303 7.27225ZM10.9402 23.289L10.4434 23.3459L10.9402 23.289ZM7.86247 1.51371L8.34515 1.64418L7.86247 1.51371ZM8.45013 1.55784L7.95338 1.61476L8.45013 1.55784ZM2.92497 17.6257L2.43964 17.7459L2.92497 17.6257ZM3.50577 17.6318L3.02309 17.5013L3.50577 17.6318ZM0.514673 9.97601L2.43964 17.7459L3.4103 17.5054L1.48533 9.73553L0.514673 9.97601ZM3.98845 17.7623L8.34515 1.64418L7.37979 1.38325L3.02309 17.5013L3.98845 17.7623ZM7.95338 1.61476L10.4434 23.3459L11.4369 23.2321L8.94687 1.50092L7.95338 1.61476ZM12.017 23.4379L15.7897 7.38665L14.8162 7.15785L11.0435 23.2091L12.017 23.4379ZM15.4055 7.40489L17.8504 14.6444L18.7979 14.3244L16.353 7.08492L15.4055 7.40489ZM19.3759 14.6141L22.5638 3.7718L21.6044 3.48972L18.4165 14.332L19.3759 14.6141ZM22.1798 3.77099L24.4754 11.7013L25.436 11.4232L23.1404 3.49294L22.1798 3.77099ZM25.2439 12.2788H27.0417V11.2788H25.2439V12.2788ZM24.4754 11.7013C24.5744 12.0434 24.8877 12.2788 25.2439 12.2788V11.2788C25.3329 11.2788 25.4112 11.3377 25.436 11.4232L24.4754 11.7013ZM22.5638 3.7718C22.5074 3.96366 22.2354 3.96309 22.1798 3.77099L23.1404 3.49294C22.9179 2.72454 21.8301 2.72227 21.6044 3.48972L22.5638 3.7718ZM17.8504 14.6444C18.1006 15.3851 19.1554 15.3641 19.3759 14.6141L18.4165 14.332C18.4716 14.1445 18.7353 14.1392 18.7979 14.3244L17.8504 14.6444ZM15.7897 7.38665C15.7437 7.58247 15.4699 7.59546 15.4055 7.40489L16.353 7.08492C16.0955 6.32261 15.0003 6.37458 14.8162 7.15785L15.7897 7.38665ZM10.4434 23.3459C10.5455 24.237 11.8118 24.3111 12.017 23.4379L11.0435 23.2091C11.0525 23.171 11.0804 23.1235 11.1289 23.0904C11.1718 23.0611 11.2155 23.0532 11.2499 23.0552C11.2843 23.0572 11.3267 23.0701 11.3659 23.1043C11.4102 23.1428 11.4324 23.1932 11.4369 23.2321L10.4434 23.3459ZM8.34515 1.64418C8.3349 1.68207 8.30588 1.72777 8.25774 1.75903C8.21487 1.78688 8.17157 1.79402 8.1371 1.79143C8.10263 1.78884 8.06088 1.77532 8.02265 1.74138C7.97972 1.70328 7.95784 1.65376 7.95338 1.61476L8.94687 1.50092C8.84647 0.624701 7.60991 0.531882 7.37979 1.38325L8.34515 1.64418ZM2.43964 17.7459C2.63818 18.5473 3.77302 18.5593 3.98845 17.7623L3.02309 17.5013C3.07695 17.3021 3.36066 17.3051 3.4103 17.5054L2.43964 17.7459Z" fill="white"/>
<circle cx="30.6875" cy="11.9792" r="4.1875" stroke="white"/>
</svg>
