<svg width="18" height="18" viewBox="0 0 18 18" fill="none" xmlns="http://www.w3.org/2000/svg">
<path d="M1.03982 14.4658C0.288114 11.0307 0.488606 7.97697 0.65785 6.83601C0.660455 6.83008 0.665653 6.81903 0.674986 6.80242C0.698747 6.76011 0.738287 6.70102 0.798447 6.62414C0.918815 6.47033 1.09668 6.27696 1.32795 6.04903C1.78896 5.59468 2.4258 5.0384 3.14733 4.4416C4.58817 3.24984 6.33306 1.92404 7.60317 0.978386C8.45651 0.343031 9.61507 0.340271 10.4709 0.971761C11.7516 1.91678 13.5121 3.2443 14.957 4.43767C15.6807 5.03539 16.3158 5.59184 16.7701 6.04553C16.9981 6.27329 17.1702 6.46498 17.2835 6.61592C17.3401 6.69137 17.375 6.7474 17.3944 6.7853C17.3985 6.79328 17.4014 6.79956 17.4035 6.80421C17.4046 6.82123 17.4057 6.83864 17.4069 6.85642C17.4885 8.08105 17.6893 11.0978 17.0243 14.4761C16.8478 15.3725 16.5119 15.9642 16.0025 16.3735C15.4806 16.7928 14.7181 17.0679 13.5975 17.2079C13.0467 17.2767 12.501 17.3333 11.9591 17.3778C9.96087 17.5418 8.01185 17.5407 6.04197 17.3748C5.52001 17.3308 4.99643 17.2752 4.46993 17.2081C3.35121 17.0654 2.5985 16.7875 2.08081 16.3675C1.57352 15.9559 1.2359 15.3619 1.03982 14.4658Z" stroke="white" stroke-linecap="round" stroke-linejoin="round"/>
</svg>
