<svg width="38" height="38" viewBox="0 0 38 38" fill="none" xmlns="http://www.w3.org/2000/svg">
<g opacity="0.5" filter="url(#filter0_bii_1031_1608)">
<rect width="38" height="38" rx="7" fill="white" fill-opacity="0.1"/>
</g>
<path d="M20.87 10.1999C20.56 10.1099 20.24 10.0399 19.91 9.99994C18.95 9.87994 18.03 9.94994 17.17 10.1999C17.46 9.45994 18.18 8.93994 19.02 8.93994C19.86 8.93994 20.58 9.45994 20.87 10.1999Z" stroke="#7E8785" stroke-width="1.5" stroke-miterlimit="10" stroke-linecap="round" stroke-linejoin="round"/>
<path d="M22.02 26.0601C22.02 27.7101 20.67 29.0601 19.02 29.0601C18.2 29.0601 17.44 28.7201 16.9 28.1801C16.36 27.6401 16.02 26.8801 16.02 26.0601" stroke="#7E8785" stroke-width="1.5" stroke-miterlimit="10"/>
<path d="M19.02 9.91003C15.71 9.91003 13.02 12.6 13.02 15.91V18.8C13.02 19.41 12.76 20.34 12.45 20.86L11.3 22.77C10.59 23.95 11.08 25.26 12.38 25.7C16.69 27.14 21.34 27.14 25.65 25.7C26.86 25.3 27.39 23.87 26.73 22.77L25.58 20.86C25.28 20.34 25.02 19.41 25.02 18.8V15.91C25.02 12.61 22.32 9.91003 19.02 9.91003Z" stroke="white" stroke-width="1.5" stroke-miterlimit="10" stroke-linecap="round"/>
<defs>
<filter id="filter0_bii_1031_1608" x="-34.8" y="-34.8" width="107.6" height="107.6" filterUnits="userSpaceOnUse" color-interpolation-filters="sRGB">
<feFlood flood-opacity="0" result="BackgroundImageFix"/>
<feGaussianBlur in="BackgroundImageFix" stdDeviation="17.4"/>
<feComposite in2="SourceAlpha" operator="in" result="effect1_backgroundBlur_1031_1608"/>
<feBlend mode="normal" in="SourceGraphic" in2="effect1_backgroundBlur_1031_1608" result="shape"/>
<feColorMatrix in="SourceAlpha" type="matrix" values="0 0 0 0 0 0 0 0 0 0 0 0 0 0 0 0 0 0 127 0" result="hardAlpha"/>
<feOffset dx="-17.4" dy="17.4"/>
<feGaussianBlur stdDeviation="8.7"/>
<feComposite in2="hardAlpha" operator="arithmetic" k2="-1" k3="1"/>
<feColorMatrix type="matrix" values="0 0 0 0 1 0 0 0 0 1 0 0 0 0 1 0 0 0 0.1 0"/>
<feBlend mode="normal" in2="shape" result="effect2_innerShadow_1031_1608"/>
<feColorMatrix in="SourceAlpha" type="matrix" values="0 0 0 0 0 0 0 0 0 0 0 0 0 0 0 0 0 0 127 0" result="hardAlpha"/>
<feOffset dx="17.4" dy="-17.4"/>
<feGaussianBlur stdDeviation="8.7"/>
<feComposite in2="hardAlpha" operator="arithmetic" k2="-1" k3="1"/>
<feColorMatrix type="matrix" values="0 0 0 0 0.76 0 0 0 0 0.76 0 0 0 0 0.76 0 0 0 0.1 0"/>
<feBlend mode="normal" in2="effect2_innerShadow_1031_1608" result="effect3_innerShadow_1031_1608"/>
</filter>
</defs>
</svg>
