<svg width="24" height="24" viewBox="0 0 24 24" fill="none" xmlns="http://www.w3.org/2000/svg">
    <path d="M17 5.5C16.75 2.83334 15 1 12 1C9 1 7.25 2.83335 7 5.5" stroke="white" stroke-linecap="round" stroke-linejoin="round"/>
    <path d="M22.8942 9.40724C21.5793 10.7572 17.0455 15 12 15C6.95452 15 2.42066 10.7572 1.10579 9.40724M4.39281 6.28232C2.83271 6.80512 1.88625 7.62472 1.30921 8.89739C1.31415 8.90261 1.31918 8.9079 1.32429 8.91328C1.47541 9.07221 1.69934 9.30089 1.9872 9.57608C2.56347 10.127 3.39312 10.8615 4.40522 11.5952C6.44293 13.0724 9.15671 14.5 12 14.5C14.8433 14.5 17.5571 13.0724 19.5948 11.5952C20.6069 10.8615 21.4365 10.127 22.0128 9.57608C22.3007 9.30089 22.5246 9.07221 22.6757 8.91328C22.6808 8.9079 22.6859 8.90261 22.6908 8.89739C22.1138 7.62472 21.1673 6.80512 19.6072 6.28232C17.8924 5.70768 15.4565 5.5 12 5.5C8.54352 5.5 6.10761 5.70768 4.39281 6.28232ZM1.2962 10.2989C1.16441 10.1729 1.0452 10.0561 0.939309 9.95023C0.62608 11.1219 0.5 12.6079 0.5 14.5C0.5 18.4131 1.04309 20.5555 2.6046 21.7917C3.39709 22.4191 4.49802 22.8516 6.04267 23.1233C7.58759 23.3951 9.53834 23.5 12 23.5C14.4617 23.5 16.4124 23.3951 17.9573 23.1233C19.502 22.8516 20.6029 22.4191 21.3954 21.7917C22.9569 20.5555 23.5 18.4131 23.5 14.5C23.5 12.6079 23.3739 11.1219 23.0607 9.95023C22.9548 10.0561 22.8356 10.1729 22.7038 10.2989C22.1032 10.873 21.2388 11.6385 20.1817 12.4048C18.0812 13.9276 15.1567 15.5 12 15.5C8.84329 15.5 5.91881 13.9276 3.81828 12.4048C2.76125 11.6385 1.89677 10.873 1.2962 10.2989Z" stroke="white" stroke-linecap="round" stroke-linejoin="round"/>
</svg>