<svg width="20" height="20" viewBox="0 0 20 20" fill="none" xmlns="http://www.w3.org/2000/svg">
<path d="M7.50004 13.3333C7.50004 13.5543 7.41224 13.7663 7.25596 13.9226C7.09968 14.0789 6.88772 14.1667 6.66671 14.1667C6.44569 14.1667 6.23373 14.0789 6.07745 13.9226C5.92117 13.7663 5.83337 13.5543 5.83337 13.3333C5.83337 13.1123 5.92117 12.9004 6.07745 12.7441C6.23373 12.5878 6.44569 12.5 6.66671 12.5C6.88772 12.5 7.09968 12.5878 7.25596 12.7441C7.41224 12.9004 7.50004 13.1123 7.50004 13.3333ZM10.8334 13.3333C10.8334 13.5543 10.7456 13.7663 10.5893 13.9226C10.433 14.0789 10.2211 14.1667 10 14.1667C9.77903 14.1667 9.56707 14.0789 9.41079 13.9226C9.2545 13.7663 9.16671 13.5543 9.16671 13.3333C9.16671 13.1123 9.2545 12.9004 9.41079 12.7441C9.56707 12.5878 9.77903 12.5 10 12.5C10.2211 12.5 10.433 12.5878 10.5893 12.7441C10.7456 12.9004 10.8334 13.1123 10.8334 13.3333ZM13.3334 14.1667C13.5544 14.1667 13.7663 14.0789 13.9226 13.9226C14.0789 13.7663 14.1667 13.5543 14.1667 13.3333C14.1667 13.1123 14.0789 12.9004 13.9226 12.7441C13.7663 12.5878 13.5544 12.5 13.3334 12.5C13.1124 12.5 12.9004 12.5878 12.7441 12.7441C12.5878 12.9004 12.5 13.1123 12.5 13.3333C12.5 13.5543 12.5878 13.7663 12.7441 13.9226C12.9004 14.0789 13.1124 14.1667 13.3334 14.1667Z" fill="white"/>
<path fill-rule="evenodd" clip-rule="evenodd" d="M4.37496 6.66675V7.75258C4.18607 7.76536 4.00774 7.78314 3.83996 7.80591C3.08996 7.90591 2.45829 8.12258 1.95663 8.62341C1.45496 9.12508 1.23996 9.75675 1.13913 10.5067C1.04163 11.2292 1.04163 12.1484 1.04163 13.2876V13.3792C1.04163 14.5184 1.04163 15.4376 1.13913 16.1601C1.23913 16.9101 1.45579 17.5417 1.95663 18.0434C2.45829 18.5451 3.08996 18.7601 3.83996 18.8617C4.56246 18.9584 5.48163 18.9584 6.62079 18.9584H13.3791C14.5183 18.9584 15.4375 18.9584 16.16 18.8617C16.91 18.7601 17.5416 18.5451 18.0433 18.0434C18.545 17.5417 18.76 16.9101 18.8616 16.1601C18.9583 15.4376 18.9583 14.5184 18.9583 13.3792V13.2876C18.9583 12.1484 18.9583 11.2292 18.8616 10.5067C18.76 9.75675 18.545 9.12508 18.0433 8.62341C17.5416 8.12175 16.91 7.90675 16.16 7.80591C15.9822 7.78239 15.8038 7.7646 15.625 7.75258V6.66675C15.625 5.17491 15.0323 3.74416 13.9774 2.68927C12.9225 1.63438 11.4918 1.04175 9.99996 1.04175C8.50812 1.04175 7.07738 1.63438 6.02248 2.68927C4.96759 3.74416 4.37496 5.17491 4.37496 6.66675ZM9.99996 2.29175C8.83964 2.29175 7.72684 2.75268 6.90637 3.57316C6.0859 4.39363 5.62496 5.50643 5.62496 6.66675V7.71091C5.93607 7.70869 6.26801 7.70786 6.62079 7.70841H13.3791C13.7319 7.70841 14.0638 7.70925 14.375 7.71091V6.66675C14.375 4.25008 12.4166 2.29175 9.99996 2.29175ZM4.00663 9.04425C3.39496 9.12675 3.07163 9.27758 2.84079 9.50758C2.60996 9.73841 2.45996 10.0617 2.37746 10.6742C2.29329 11.3034 2.29163 12.1376 2.29163 13.3334C2.29163 14.5292 2.29329 15.3634 2.37746 15.9934C2.45996 16.6051 2.61079 16.9284 2.84079 17.1592C3.07163 17.3901 3.39496 17.5401 4.00746 17.6226C4.63579 17.7067 5.47079 17.7084 6.66663 17.7084H13.3333C14.5291 17.7084 15.3633 17.7067 15.9933 17.6226C16.605 17.5401 16.9283 17.3892 17.1591 17.1592C17.39 16.9284 17.54 16.6051 17.6225 15.9926C17.7066 15.3634 17.7083 14.5292 17.7083 13.3334C17.7083 12.1376 17.7066 11.3026 17.6225 10.6734C17.54 10.0617 17.3891 9.73841 17.1591 9.50758C16.9283 9.27675 16.605 9.12675 15.9925 9.04425C15.3633 8.96008 14.5291 8.95841 13.3333 8.95841H6.66663C5.47079 8.95841 4.63579 8.96008 4.00663 9.04425Z" fill="white"/>
</svg>
