<svg width="21" height="22" viewBox="0 0 21 22" fill="none" xmlns="http://www.w3.org/2000/svg">
<path d="M0.75 17.4167C0.75 18.3127 0.862683 18.9324 1.09304 19.3848C1.30965 19.8103 1.6654 20.1561 2.30751 20.4364C2.97278 20.7268 3.92352 20.9362 5.28395 21.0681C6.63709 21.1994 8.34543 21.25 10.5 21.25C12.6546 21.25 14.3629 21.1994 15.7161 21.0681C17.0765 20.9362 18.0272 20.7268 18.6925 20.4364C19.3346 20.1561 19.6903 19.8103 19.907 19.3848C20.1373 18.9324 20.25 18.3127 20.25 17.4167C20.25 16.5207 20.1373 15.9009 19.907 15.4485C19.6903 15.023 19.3346 14.6773 18.6925 14.397C18.0272 14.1066 17.0765 13.8972 15.7161 13.7652C14.3629 13.6339 12.6546 13.5833 10.5 13.5833C8.34543 13.5833 6.63709 13.6339 5.28395 13.7652C3.92352 13.8972 2.97278 14.1066 2.30751 14.397C1.6654 14.6773 1.30965 15.023 1.09304 15.4485C0.862683 15.9009 0.75 16.5207 0.75 17.4167Z" stroke="white" stroke-width="1.5" stroke-linecap="round" stroke-linejoin="round"/>
<path d="M5.52273 5.5C5.52273 8.09502 7.72222 10.25 10.5 10.25C13.2778 10.25 15.4773 8.09502 15.4773 5.5C15.4773 2.90498 13.2778 0.75 10.5 0.75C7.72222 0.75 5.52273 2.90498 5.52273 5.5Z" stroke="white" stroke-width="1.5"/>
</svg>
