<svg width="22" height="22" viewBox="0 0 22 22" fill="none" xmlns="http://www.w3.org/2000/svg">
<path d="M13.9666 3.54946C13.3537 0.261346 8.6463 0.261344 8.03342 3.54946C7.86241 4.4669 6.91437 5.01381 6.0367 4.7039C2.88094 3.58958 0.534078 7.67257 3.06969 9.84533C3.7776 10.4519 3.7776 11.5481 3.06969 12.1547C0.534079 14.3275 2.88094 18.4105 6.0367 17.2962C6.91437 16.9863 7.86241 17.5332 8.03342 18.4506C8.6463 21.7387 13.3537 21.7387 13.9666 18.4506C14.1376 17.5332 15.0856 16.9863 15.9633 17.2962C19.1191 18.4105 21.4659 14.3275 18.9303 12.1547C18.2224 11.5481 18.2224 10.4519 18.9303 9.84533C21.4659 7.67257 19.1191 3.58958 15.9633 4.7039C15.0856 5.01381 14.1376 4.4669 13.9666 3.54946Z" stroke="white" stroke-width="1.5" stroke-linejoin="round"/>
<circle cx="3.66667" cy="3.66667" r="2.91667" transform="matrix(-1 0 0 1 14.6666 7.33337)" stroke="white" stroke-width="1.5"/>
</svg>
