<svg width="21" height="22" viewBox="0 0 21 22" fill="none" xmlns="http://www.w3.org/2000/svg">
<path d="M0.75 11C0.75 13.145 0.80576 14.68 0.987346 15.825C1.16729 16.9596 1.46026 17.6368 1.88127 18.1211C2.3089 18.6131 2.93921 18.9889 3.96669 19.3814C4.73029 19.6731 5.64842 19.9518 6.79033 20.2984C7.20118 20.4231 7.64101 20.5566 8.11303 20.7027C9.8166 21.2299 11.0488 21.3481 11.9424 21.1769C12.7916 21.0142 13.3824 20.5824 13.8265 19.8517C14.2927 19.0845 14.6046 17.9712 14.7917 16.4608C14.9776 14.9601 15.0326 13.1388 15.0326 11C15.0326 8.86117 14.9776 7.03985 14.7917 5.53916C14.6046 4.02882 14.2927 2.9155 13.8265 2.14833C13.3824 1.41764 12.7916 0.985773 11.9424 0.823088C11.0488 0.651886 9.8166 0.770117 8.11302 1.29729C7.64106 1.44333 7.20128 1.57682 6.79047 1.70152C5.6485 2.04815 4.73032 2.32685 3.96669 2.61856C2.93921 3.01107 2.3089 3.38685 1.88127 3.87882C1.46026 4.36319 1.16729 5.04031 0.987346 6.17494C0.80576 7.31993 0.75 8.85493 0.75 11Z" stroke="white" stroke-width="1.5" stroke-linecap="round" stroke-linejoin="round"/>
<ellipse cx="0.876812" cy="0.88" rx="0.876812" ry="0.88" transform="matrix(-1 0 0 1 12.2754 10.2686)" fill="white"/>
<path d="M14.9058 18.9201C19.2898 18.9201 19.2898 17.8501 19.2898 11.1425C19.2898 4.43491 19.2898 3.08008 14.9058 3.08008" stroke="white" stroke-width="1.5" stroke-linecap="round" stroke-linejoin="round"/>
</svg>
