<svg width="22" height="22" viewBox="0 0 22 22" fill="none" xmlns="http://www.w3.org/2000/svg">
<path d="M0.75 17.4167C0.75 18.3095 0.867515 18.9238 1.10665 19.3722C1.33249 19.7956 1.70761 20.1465 2.39152 20.4314C3.09678 20.7253 4.10056 20.9356 5.52885 21.0678C6.9498 21.1994 8.74216 21.25 11 21.25C13.2578 21.25 15.0502 21.1994 16.4711 21.0678C17.8994 20.9356 18.9032 20.7253 19.6085 20.4314C20.2924 20.1465 20.6675 19.7956 20.8934 19.3722C21.1325 18.9238 21.25 18.3095 21.25 17.4167C21.25 16.5239 21.1325 15.9095 20.8934 15.4612C20.6675 15.0378 20.2924 14.6869 19.6085 14.4019C18.9032 14.1081 17.8994 13.8978 16.4711 13.7655C15.0502 13.6339 13.2578 13.5833 11 13.5833C8.74216 13.5833 6.9498 13.6339 5.52885 13.7655C4.10056 13.8978 3.09678 14.1081 2.39152 14.4019C1.70761 14.6869 1.33249 15.0378 1.10665 15.4612C0.867515 15.9095 0.75 16.5239 0.75 17.4167Z" stroke="white" stroke-width="1.5" stroke-linecap="round" stroke-linejoin="round"/>
<path d="M5.75 5.5C5.75 8.06326 8.03774 10.25 11 10.25C13.9623 10.25 16.25 8.06326 16.25 5.5C16.25 2.93674 13.9623 0.75 11 0.75C8.03774 0.75 5.75 2.93674 5.75 5.5Z" stroke="white" stroke-width="1.5"/>
</svg>
